Simulation
nRows=44
nColumns=15
endheader
time  TH_x TH_y TH_z SC_y  SC_z  SC_x  AC_y  AC_z  AC_x  GH_y  GH_z  GH_yy  EL_x  PS_y
1.5  0.000000  0.000000  0.000000  -28.5534123417463  3.511116544877928  5.487174112193511  75.32732432970417  21.82107928200121  1.2832959319868453  21.36374176898035  56.22919203241884  -41.70003773329416  35.00000056446763  120.000000
1.53  0.000000  0.000000  0.000000  -28.528013909986928  3.483384430687184  5.4450753164282615  75.24395481927814  21.860884124641096  1.2288467348276226  21.45162568408411  56.11150909533175  -41.79259437425664  35.000000572226526  120.000000
1.56  0.000000  0.000000  0.000000  -28.498218737455524  3.4555236051500744  5.410808974524292  75.15631953184898  21.878071275789218  1.1679437188430282  21.551040452547763  55.989084848354395  -41.893318156557  35.00000056707938  120.000000
1.5899999999999999  0.000000  0.000000  0.000000  -28.465017879739182  3.426275916308001  5.380299853665638  75.07160197635486  21.87282686539481  1.1029661778640938  21.65392332147193  55.86124400594987  -41.99387505378732  35.00000057221751  120.000000
1.6199999999999999  0.000000  0.000000  0.000000  -28.429570416398317  3.394344432778247  5.348526617086999  74.9949014444201  21.846343393690308  1.0355573294183233  21.754140095013298  55.724756614766676  -42.08478822101337  35.000000568531135  120.000000
1.65  0.000000  0.000000  0.000000  -28.39306514789044  3.358421127148928  5.309966423802861  74.92852830779373  21.800593000824776  0.9664451231218651  21.84822593084955  55.573738290138046  -42.15594960832842  35.000000572199546  120.000000
1.68  0.000000  0.000000  0.000000  -28.35642170743658  3.3172486702425035  5.259049390506609  74.8722178258479  21.738081710009595  0.8954117747753932  21.935262692991845  55.39997181118299  -42.19754149120332  35.000000569425545  120.000000
1.71  0.000000  0.000000  0.000000  -28.31991268040661  3.269572693812456  5.190705799615425  74.82346550993532  21.661620115102778  0.8215064869097194  22.016309351290147  55.19352322298412  -42.20053356280214  35.000000572170485  120.000000
1.74  0.000000  0.000000  0.000000  -28.282894074072576  3.214174921734466  5.100819277627625  74.77825396820533  21.574106164018605  0.7431779819339066  22.093445896562923  54.94349537204231  -42.15725316732813  35.000000570016326  120.000000
1.77  0.000000  0.000000  0.000000  -28.24360822630633  3.149829305782057  4.986631492687064  74.7314565914212  21.478276550487518  0.6584882562111863  22.168843423642127  54.638781609404724  -42.06130236814404  35.00000057212701  120.000000
1.7999999999999998  0.000000  0.000000  0.000000  -28.19924308166434  3.0753717723905627  4.846826331116623  74.67745012043379  21.37639067240573  0.5651601478006396  22.24390244368562  54.26882833697783  -41.907389532476806  35.00000057042851  120.000000
1.8299999999999998  0.000000  0.000000  0.000000  -28.146095292447015  2.9897060864815725  4.681404003925569  74.6102920011575  21.269798675445433  0.4607518373653183  22.318719239192212  53.82436392987467  -41.69052789151448  35.00000057206567  120.000000
1.8599999999999999  0.000000  0.000000  0.000000  -28.07997089400324  2.8918976010200534  4.491217683568185  74.52414880268549  21.158547329486684  0.34272139095972814  22.391796891211833  53.298174589341706  -41.40531193257444  35.00000057073704  120.000000
1.89  0.000000  0.000000  0.000000  -27.99637336447012  2.7812058733113334  4.277518431500994  74.41330493033098  21.041045502311444  0.2086869731321873  22.459985253916276  52.685799577201685  -41.04503013742624  35.000000571982824  120.000000
1.92  0.000000  0.000000  0.000000  -27.890835762215783  2.6571641393224597  4.0414182853082155  74.27253169712735  20.913984372109358  0.056596115660877286  22.51864162549458  51.98613503694226  -40.601229689631374  35.00000057098919  120.000000
1.95  0.000000  0.000000  0.000000  -27.759024948768356  2.519642704767082  3.783628350860554  74.09701392069225  20.772443751457537  -0.11494134584832444  22.562006093896247  51.201628192521305  -40.0635436006318  35.000000571872924  120.000000
1.98  0.000000  0.000000  0.000000  -27.597052004228686  2.368832356170399  3.5043607410164426  73.88264945963854  20.610371903113908  -0.3064709204580808  22.583817858675612  50.33805459564072  -39.42019907516864  35.000000571207245  120.000000
2.01  0.000000  0.000000  0.000000  -27.40175313585999  2.2054658144801977  3.2035608354969995  73.62586310224079  20.42126837863778  -0.5176318102943837  22.577970379819654  49.40375984935761  -38.65888619274536  35.00000057172354  120.000000
2.04  0.000000  0.000000  0.000000  -27.171467189815793  2.0305725080896786  2.8812930742100136  73.3234364595989  20.198977530890797  -0.7472822510532765  22.538911704008004  48.40858004764043  -37.768150818316464  35.0000005714119  120.000000
2.07  0.000000  0.000000  0.000000  -26.90607593433785  1.8458153361280212  2.5384469178057554  72.97257460333425  19.938621726793233  -0.9935465545653036  22.462347898878367  47.36281802998174  -36.738613873171786  35.00000057153166  120.000000
2.1  0.000000  0.000000  0.000000  -26.607434873617024  1.6534822864806136  2.1772283577022065  72.57162929194237  19.63735263852308  -1.2539392749324252  22.34595904787529  46.276593742934445  -35.56413546432046  35.00000057157999  120.000000
2.13  0.000000  0.000000  0.000000  -26.278937447699544  1.4565804452565347  1.8013241979329555  72.11971987338703  19.294453242439353  -1.525540196406317  22.189188426494464  45.15895830478706  -34.24292106481756  35.000000571285604  120.000000
2.16  0.000000  0.000000  0.000000  -25.925462058800136  1.2586337554368519  1.415694788595357  71.61689413320376  18.9110562422123  -1.8053941817762633  21.992941026964985  44.017393261821695  -32.77800665550348  35.000000571722126  120.000000
2.19  0.000000  0.000000  0.000000  -25.551902201737157  1.063845409539342  1.0262585376085114  71.06376590955696  18.48973259885709  -2.0907091422662143  21.75866689856025  42.85724405008347  -31.177416822230704  35.000000570955045  120.000000
2.2199999999999998  0.000000  0.000000  0.000000  -25.162767622802292  0.8766931625688675  0.6395530887262307  70.4618365026484  18.03409922472332  -2.379055750349025  21.48726873646384  41.6815989697117  -29.45379371529068  35.00000057183978  120.000000
2.25  0.000000  0.000000  0.000000  -24.760746822413072  0.7020541178060683  0.26244419992610146  69.81317039422214  17.54835105824102  -2.6684240899317087  21.17748494074896  40.491259711129544  -27.623318564162993  35.00000057048994  120.000000
2.28  0.000000  0.000000  0.000000  -24.347000639654183  0.5447224780326935  -0.09817856309243905  69.12090075428746  17.03673508478279  -2.957218581080063  20.824668857422683  39.28548489362523  -25.703362549193873  35.0000005719378  120.000000
2.31  0.000000  0.000000  0.000000  -23.920626993962006  0.40960082586186036  -0.43592838578333826  68.38850187451669  16.502926059523865  -3.2443379898421645  20.4194450263429  38.06261192730396  -23.7089895828415  35.000000569852304  120.000000
2.34  0.000000  0.000000  0.000000  -23.479920701673404  0.30127778411495487  -0.7449392476081143  67.6200350105817  15.949741271926468  -3.529159829216106  19.947254363058555  36.82187803039829  -21.649034452193145  35.00000057202973  120.000000
2.37  0.000000  0.000000  0.000000  -23.020997618589835  0.2234389500990979  -1.0189637008928731  66.81943990884011  15.379491572453455  -3.8101236190010233  19.389434160039027  35.56487661025631  -19.52173993864344  35.000000569082005  120.000000
2.4  0.000000  0.000000  0.000000  -22.53737821735804  0.17987775437105774  -1.2521974050088238  65.99299195659367  14.794282656061348  -4.085500923047765  18.72563818425736  34.2972220425188  -17.31241128251382  35.000000572105705  120.000000
2.4299999999999997  0.000000  0.000000  0.000000  -22.021681872279725  0.17307887945144443  -1.4402331830835753  65.14513679737624  14.196255215021111  -4.353997066438326  17.934592459457907  33.026254826401036  -14.994252098587518  35.00000056848784  120.000000
2.46  0.000000  0.000000  0.000000  -21.46739919558929  0.20471545015597953  -1.5812896459221268  64.2806555046123  13.58737427782709  -4.616210914583839  16.99686393121619  31.76065968584191  -12.53325262449139  35.00000057217934  120.000000
2.4899999999999998  0.000000  0.000000  0.000000  -20.869995954949115  0.27444401300377524  -1.6770027618220251  63.40593565821329  12.970396540489816  -4.872449187948585  15.898287970653913  30.510140469421696  -9.895690766967816  35.00000056732852  120.000000
2.52  0.000000  0.000000  0.000000  -20.230381625557154  0.3791065149491859  -1.7318623225606424  62.529120568711946  12.348858920910624  -5.12373929746503  14.631237873622958  29.284663686510505  -7.056525283226226  35.00000057223411  120.000000
2.55  0.000000  0.000000  0.000000  -19.55706444727428  0.5122481975157125  -1.7515355219276196  61.66006288202523  11.726227353366006  -5.3718487253217475  13.19489952298971  28.09435365736115  -4.007247342248809  35.00000056396144  120.000000
2.58  0.000000  0.000000  0.000000  -18.86770381018173  0.6642711593934497  -1.741290100760959  60.81093126429758  11.106747889111627  -5.618426661629705  11.594974899484797  26.950172593892194  -0.7598448727086607  35.00000057226064  120.000000
2.61  0.000000  0.000000  0.000000  -18.186276001400252  0.8235110717297446  -1.7038872222855679  59.99423029943581  10.494606704884639  -5.867130595097741  9.84219235372111  25.863187086749843  2.6544967102298007  35.00000054932843  120.000000
2.6399999999999997  0.000000  0.000000  0.000000  -17.540400436682262  0.9793736921438553  -1.6423980580923911  59.22358546123666  9.894693260667472  -6.121750354574044  7.951854604713791  24.844202710252123  6.190442441861012  35.000000572258145  120.000000
2.67  0.000000  0.000000  0.000000  -16.95563386035699  1.1218749894592466  -1.5623815534840642  58.50955957517787  9.31497630205372  -6.386180000693701  5.941679470234459  23.902507517958092  9.796036429787991  35.00000031482873  120.000000
2.6999999999999997  0.000000  0.000000  0.000000  -16.45364271141352  1.2427046459793298  -1.4702771279471982  57.858429120371795  8.763582831670796  -6.660711528477173  3.8312713585040004  23.045767023226368  13.419319295460122  35.000000572239536  120.000000
2.73  0.000000  0.000000  0.000000  -16.046124331672274  1.334498450509183  -1.37357565989406  57.27248529353928  8.247942163926659  -6.944048507696457  1.6408500268166617  22.28004635853238  17.01390567004677  34.99970233547352  120.000000
2.76  0.000000  0.000000  0.000000  -15.736024295641188  1.3941717245644243  -1.2808286358093097  56.753956980100725  7.7726507857485325  -7.23083327766759  -0.6085346655113542  21.60921378542263  20.54200417320023  35.00000057221151  120.000000
2.79  0.000000  0.000000  0.000000  -15.518630111394373  1.41768369385557  -1.2008960118819758  56.304099961075494  7.33954245489342  -7.513139865244918  -2.897378949026586  21.033910137179724  23.975066809366087  34.99967732710333  120.000000
